<svg width="80" height="80" viewBox="0 0 80 80" fill="none" xmlns="http://www.w3.org/2000/svg">
<g clip-path="url(#clip0_1103_4)">
<g filter="url(#filter0_d_1103_4)">
<path d="M74.395 8.98215L71.52 6.10715C71.1735 5.75643 70.7609 5.47797 70.306 5.28792C69.8511 5.09786 69.363 5 68.87 5C68.377 5 67.8889 5.09786 67.434 5.28792C66.9791 5.47797 66.5665 5.75643 66.22 6.10715L53 19.3297V27.5022H61.175L74.395 14.2822C74.7457 13.9357 75.0242 13.523 75.2142 13.0681C75.4043 12.6132 75.5022 12.1252 75.5022 11.6322C75.5022 11.1392 75.4043 10.6511 75.2142 10.1962C75.0242 9.74127 74.7457 9.32862 74.395 8.98215V8.98215ZM59.4475 23.6272H56.8725V21.0522L65.5 12.4347L68.075 15.0097L59.4475 23.6272Z" fill="black"/>
</g>
<g filter="url(#filter1_d_1103_4)">
<path d="M75.8889 32.8889H47.1111V4.11111H59.4444V0H47.1111C46.0218 0.00325338 44.978 0.437432 44.2077 1.20771C43.4374 1.97799 43.0033 3.02178 43 4.11111V32.8889C43.0033 33.9782 43.4374 35.022 44.2077 35.7923C44.978 36.5626 46.0218 36.9967 47.1111 37H75.8889C76.9782 36.9967 78.022 36.5626 78.7923 35.7923C79.5626 35.022 79.9967 33.9782 80 32.8889V20.5556H75.8889V32.8889Z" fill="black"/>
</g>
<g filter="url(#filter2_d_1103_4)">
<path d="M40 75H35V62.5C34.998 60.5115 34.2072 58.605 32.8011 57.1989C31.395 55.7928 29.4885 55.002 27.5 55H17.5C15.5115 55.002 13.605 55.7928 12.1989 57.1989C10.7928 58.605 10.002 60.5115 10 62.5V75H5V62.5C5.00397 59.186 6.3222 56.0089 8.66555 53.6655C11.0089 51.3222 14.186 50.004 17.5 50H27.5C30.814 50.004 33.9911 51.3222 36.3344 53.6655C38.6778 56.0089 39.996 59.186 40 62.5V75Z" fill="black"/>
</g>
<g filter="url(#filter3_d_1103_4)">
<path d="M22.5 25C23.9834 25 25.4334 25.4399 26.6668 26.264C27.9002 27.0881 28.8614 28.2594 29.4291 29.6299C29.9968 31.0003 30.1453 32.5083 29.8559 33.9632C29.5665 35.418 28.8522 36.7544 27.8033 37.8033C26.7544 38.8522 25.418 39.5665 23.9632 39.8559C22.5083 40.1453 21.0003 39.9968 19.6299 39.4291C18.2594 38.8614 17.0881 37.9001 16.264 36.6668C15.4399 35.4334 15 33.9834 15 32.5C15 30.5109 15.7902 28.6032 17.1967 27.1967C18.6032 25.7902 20.5109 25 22.5 25V25ZM22.5 20C20.0277 20 17.611 20.7331 15.5554 22.1066C13.4998 23.4801 11.8976 25.4324 10.9515 27.7165C10.0054 30.0005 9.75787 32.5139 10.2402 34.9386C10.7225 37.3634 11.913 39.5907 13.6612 41.3388C15.4093 43.087 17.6366 44.2775 20.0614 44.7598C22.4861 45.2421 24.9995 44.9946 27.2835 44.0485C29.5676 43.1024 31.5199 41.5002 32.8934 39.4446C34.2669 37.389 35 34.9723 35 32.5C35 30.8585 34.6767 29.233 34.0485 27.7165C33.4203 26.1999 32.4996 24.8219 31.3388 23.6612C30.1781 22.5004 28.8001 21.5797 27.2835 20.9515C25.767 20.3233 24.1415 20 22.5 20V20Z" fill="black"/>
</g>
</g>
<defs>
<filter id="filter0_d_1103_4" x="49" y="5" width="30.502" height="30.5022" filterUnits="userSpaceOnUse" color-interpolation-filters="sRGB">
<feFlood flood-opacity="0" result="BackgroundImageFix"/>
<feColorMatrix in="SourceAlpha" type="matrix" values="0 0 0 0 0 0 0 0 0 0 0 0 0 0 0 0 0 0 127 0" result="hardAlpha"/>
<feOffset dy="4"/>
<feGaussianBlur stdDeviation="2"/>
<feComposite in2="hardAlpha" operator="out"/>
<feColorMatrix type="matrix" values="0 0 0 0 0 0 0 0 0 0 0 0 0 0 0 0 0 0 0.25 0"/>
<feBlend mode="normal" in2="BackgroundImageFix" result="effect1_dropShadow_1103_4"/>
<feBlend mode="normal" in="SourceGraphic" in2="effect1_dropShadow_1103_4" result="shape"/>
</filter>
<filter id="filter1_d_1103_4" x="39" y="0" width="45" height="45" filterUnits="userSpaceOnUse" color-interpolation-filters="sRGB">
<feFlood flood-opacity="0" result="BackgroundImageFix"/>
<feColorMatrix in="SourceAlpha" type="matrix" values="0 0 0 0 0 0 0 0 0 0 0 0 0 0 0 0 0 0 127 0" result="hardAlpha"/>
<feOffset dy="4"/>
<feGaussianBlur stdDeviation="2"/>
<feComposite in2="hardAlpha" operator="out"/>
<feColorMatrix type="matrix" values="0 0 0 0 0 0 0 0 0 0 0 0 0 0 0 0 0 0 0.25 0"/>
<feBlend mode="normal" in2="BackgroundImageFix" result="effect1_dropShadow_1103_4"/>
<feBlend mode="normal" in="SourceGraphic" in2="effect1_dropShadow_1103_4" result="shape"/>
</filter>
<filter id="filter2_d_1103_4" x="1" y="50" width="43" height="33" filterUnits="userSpaceOnUse" color-interpolation-filters="sRGB">
<feFlood flood-opacity="0" result="BackgroundImageFix"/>
<feColorMatrix in="SourceAlpha" type="matrix" values="0 0 0 0 0 0 0 0 0 0 0 0 0 0 0 0 0 0 127 0" result="hardAlpha"/>
<feOffset dy="4"/>
<feGaussianBlur stdDeviation="2"/>
<feComposite in2="hardAlpha" operator="out"/>
<feColorMatrix type="matrix" values="0 0 0 0 0 0 0 0 0 0 0 0 0 0 0 0 0 0 0.25 0"/>
<feBlend mode="normal" in2="BackgroundImageFix" result="effect1_dropShadow_1103_4"/>
<feBlend mode="normal" in="SourceGraphic" in2="effect1_dropShadow_1103_4" result="shape"/>
</filter>
<filter id="filter3_d_1103_4" x="6" y="20" width="33" height="33" filterUnits="userSpaceOnUse" color-interpolation-filters="sRGB">
<feFlood flood-opacity="0" result="BackgroundImageFix"/>
<feColorMatrix in="SourceAlpha" type="matrix" values="0 0 0 0 0 0 0 0 0 0 0 0 0 0 0 0 0 0 127 0" result="hardAlpha"/>
<feOffset dy="4"/>
<feGaussianBlur stdDeviation="2"/>
<feComposite in2="hardAlpha" operator="out"/>
<feColorMatrix type="matrix" values="0 0 0 0 0 0 0 0 0 0 0 0 0 0 0 0 0 0 0.25 0"/>
<feBlend mode="normal" in2="BackgroundImageFix" result="effect1_dropShadow_1103_4"/>
<feBlend mode="normal" in="SourceGraphic" in2="effect1_dropShadow_1103_4" result="shape"/>
</filter>
<clipPath id="clip0_1103_4">
<rect width="80" height="80" fill="white"/>
</clipPath>
</defs>
</svg>
