<svg width="80" height="80" viewBox="0 0 80 80" fill="none" xmlns="http://www.w3.org/2000/svg">
<g clip-path="url(#clip0_1103_15)">
<g filter="url(#filter0_d_1103_15)">
<path d="M76.7593 9.61539H71.25L69.9375 5.87363C69.8468 5.61759 69.6807 5.39627 69.4617 5.23991C69.2427 5.08354 68.9816 4.99976 68.7141 5H56.2859C55.739 5 55.2488 5.35028 55.0666 5.87363L53.75 9.61539H48.2407C46.4502 9.61539 45 11.0907 45 12.9121V31.7033C45 33.5247 46.4502 35 48.2407 35H76.7593C78.5498 35 80 33.5247 80 31.7033V12.9121C80 11.0907 78.5498 9.61539 76.7593 9.61539ZM76.0833 30.7033C76.0833 30.8846 75.9375 31.033 75.7593 31.033L62.1703 31L49.2407 31.033C49.0625 31.033 48.9167 30.8846 48.9167 30.7033V13.9121C48.9167 13.7308 49.0625 13.5824 49.2407 13.5824H55.8038L56.4965 10.6126L57.4242 8.96703H67.5718L68.4994 10.6126L69.1921 13.5824H75.7593C75.9375 13.5824 76.0833 13.7308 76.0833 13.9121V30.7033ZM62.5 15.2198C58.919 15.2198 56.0185 18.1703 56.0185 21.8132C56.0185 25.456 58.919 28.4066 62.5 28.4066C66.081 28.4066 68.9815 25.456 68.9815 21.8132C68.9815 18.1703 66.081 15.2198 62.5 15.2198ZM62.5 25.7692C60.353 25.7692 58.6111 23.9973 58.6111 21.8132C58.6111 19.6291 60.353 17.8571 62.5 17.8571C64.647 17.8571 66.3889 19.6291 66.3889 21.8132C66.3889 23.9973 64.647 25.7692 62.5 25.7692Z" fill="black"/>
</g>
<g filter="url(#filter1_d_1103_15)">
<path d="M40 75H35V62.5C34.998 60.5115 34.2072 58.605 32.8011 57.1989C31.395 55.7928 29.4885 55.002 27.5 55H17.5C15.5115 55.002 13.605 55.7928 12.1989 57.1989C10.7928 58.605 10.002 60.5115 10 62.5V75H5V62.5C5.00397 59.186 6.3222 56.0089 8.66555 53.6655C11.0089 51.3222 14.186 50.004 17.5 50H27.5C30.814 50.004 33.9911 51.3222 36.3345 53.6655C38.6778 56.0089 39.996 59.186 40 62.5V75Z" fill="black"/>
</g>
<g filter="url(#filter2_d_1103_15)">
<path d="M22.5 25C23.9834 25 25.4334 25.4399 26.6668 26.264C27.9002 27.0881 28.8614 28.2594 29.4291 29.6299C29.9968 31.0003 30.1453 32.5083 29.8559 33.9632C29.5665 35.418 28.8522 36.7544 27.8033 37.8033C26.7544 38.8522 25.418 39.5665 23.9632 39.8559C22.5083 40.1453 21.0003 39.9968 19.6299 39.4291C18.2594 38.8614 17.0881 37.9001 16.264 36.6668C15.4399 35.4334 15 33.9834 15 32.5C15 30.5109 15.7902 28.6032 17.1967 27.1967C18.6032 25.7902 20.5109 25 22.5 25V25ZM22.5 20C20.0277 20 17.611 20.7331 15.5554 22.1066C13.4998 23.4801 11.8976 25.4324 10.9515 27.7165C10.0054 30.0005 9.75787 32.5139 10.2402 34.9386C10.7225 37.3634 11.913 39.5907 13.6612 41.3388C15.4093 43.087 17.6366 44.2775 20.0614 44.7598C22.4861 45.2421 24.9995 44.9946 27.2835 44.0485C29.5676 43.1024 31.5199 41.5002 32.8934 39.4446C34.2669 37.389 35 34.9723 35 32.5C35 30.8585 34.6767 29.233 34.0485 27.7165C33.4203 26.1999 32.4996 24.8219 31.3388 23.6612C30.1781 22.5004 28.8001 21.5797 27.2835 20.9515C25.767 20.3233 24.1415 20 22.5 20V20Z" fill="black"/>
</g>
</g>
<defs>
<filter id="filter0_d_1103_15" x="41" y="5" width="43" height="38" filterUnits="userSpaceOnUse" color-interpolation-filters="sRGB">
<feFlood flood-opacity="0" result="BackgroundImageFix"/>
<feColorMatrix in="SourceAlpha" type="matrix" values="0 0 0 0 0 0 0 0 0 0 0 0 0 0 0 0 0 0 127 0" result="hardAlpha"/>
<feOffset dy="4"/>
<feGaussianBlur stdDeviation="2"/>
<feComposite in2="hardAlpha" operator="out"/>
<feColorMatrix type="matrix" values="0 0 0 0 0 0 0 0 0 0 0 0 0 0 0 0 0 0 0.25 0"/>
<feBlend mode="normal" in2="BackgroundImageFix" result="effect1_dropShadow_1103_15"/>
<feBlend mode="normal" in="SourceGraphic" in2="effect1_dropShadow_1103_15" result="shape"/>
</filter>
<filter id="filter1_d_1103_15" x="1" y="50" width="43" height="33" filterUnits="userSpaceOnUse" color-interpolation-filters="sRGB">
<feFlood flood-opacity="0" result="BackgroundImageFix"/>
<feColorMatrix in="SourceAlpha" type="matrix" values="0 0 0 0 0 0 0 0 0 0 0 0 0 0 0 0 0 0 127 0" result="hardAlpha"/>
<feOffset dy="4"/>
<feGaussianBlur stdDeviation="2"/>
<feComposite in2="hardAlpha" operator="out"/>
<feColorMatrix type="matrix" values="0 0 0 0 0 0 0 0 0 0 0 0 0 0 0 0 0 0 0.25 0"/>
<feBlend mode="normal" in2="BackgroundImageFix" result="effect1_dropShadow_1103_15"/>
<feBlend mode="normal" in="SourceGraphic" in2="effect1_dropShadow_1103_15" result="shape"/>
</filter>
<filter id="filter2_d_1103_15" x="6" y="20" width="33" height="33" filterUnits="userSpaceOnUse" color-interpolation-filters="sRGB">
<feFlood flood-opacity="0" result="BackgroundImageFix"/>
<feColorMatrix in="SourceAlpha" type="matrix" values="0 0 0 0 0 0 0 0 0 0 0 0 0 0 0 0 0 0 127 0" result="hardAlpha"/>
<feOffset dy="4"/>
<feGaussianBlur stdDeviation="2"/>
<feComposite in2="hardAlpha" operator="out"/>
<feColorMatrix type="matrix" values="0 0 0 0 0 0 0 0 0 0 0 0 0 0 0 0 0 0 0.25 0"/>
<feBlend mode="normal" in2="BackgroundImageFix" result="effect1_dropShadow_1103_15"/>
<feBlend mode="normal" in="SourceGraphic" in2="effect1_dropShadow_1103_15" result="shape"/>
</filter>
<clipPath id="clip0_1103_15">
<rect width="80" height="80" fill="white"/>
</clipPath>
</defs>
</svg>
